<svg version="1.1" xmlns="http://www.w3.org/2000/svg" xmlns:xlink="http://www.w3.org/1999/xlink" width="512.000000pt" height="512.000000pt" viewBox="0,0,256,256"><g fill="#00a0da" fill-rule="nonzero" stroke="none" stroke-width="1" stroke-linecap="butt" stroke-linejoin="miter" stroke-miterlimit="10" stroke-dasharray="" stroke-dashoffset="0" font-family="none" font-weight="none" font-size="none" text-anchor="none" style="mix-blend-mode: normal"><g transform="translate(0.00228,-0.06802) scale(0.5,0.5)"><g transform="translate(0,512) scale(0.1,-0.1)"><path d="M868,5106c-140,-25 -324,-97 -353,-139c-8,-12 -15,-39 -15,-61c0,-39 8,-47 274,-315c151,-152 279,-289 285,-304c55,-144 -97,-289 -232,-221c-18,9 -154,137 -302,285c-270,268 -271,269 -314,269c-57,0 -87,-33 -130,-141c-49,-123 -71,-222 -78,-345c-22,-412 205,-798 582,-987c188,-94 418,-128 615,-93l75,14l203,-201c111,-111 202,-204 202,-207c0,-3 -21,-16 -47,-29c-35,-18 -237,-213 -741,-715c-381,-380 -714,-718 -739,-751c-103,-136 -147,-267 -148,-435c0,-65 6,-139 14,-170c112,-451 596,-685 1009,-490c108,51 170,100 325,257c125,128 127,130 127,175c0,39 -5,50 -31,72c-20,17 -42,26 -66,26c-31,0 -49,-14 -178,-139c-219,-213 -297,-255 -480,-255c-151,-1 -266,46 -370,149c-103,104 -150,219 -149,370c0,114 22,193 79,279c18,28 282,300 587,604l553,552l370,-370l370,-370l-118,-118c-97,-97 -119,-124 -124,-155c-5,-32 -1,-41 30,-72c38,-38 70,-44 115,-21c15,8 144,133 287,278c183,184 266,276 279,306c11,23 22,42 25,42c3,0 97,-91 209,-203l203,-203l-10,-45c-55,-251 10,-554 169,-783c59,-85 189,-214 270,-267c189,-124 359,-174 590,-173c168,1 286,27 423,91c89,42 107,61 107,117c0,39 -8,47 -274,315c-151,152 -279,289 -285,304c-39,102 27,221 129,234c93,13 93,13 396,-288c267,-266 282,-279 318,-279c55,0 73,14 107,83c143,282 143,627 1,912c-56,113 -97,171 -189,266c-139,144 -297,238 -482,286c-122,31 -311,41 -423,21l-77,-14l-318,318l-318,318l565,568l565,569l143,1c101,2 151,6 171,16c22,12 70,98 243,433c119,230 219,428 222,440c13,41 -22,88 -170,235c-148,146 -188,174 -228,162c-11,-3 -209,-104 -439,-223c-330,-170 -422,-222 -433,-243c-10,-19 -14,-69 -16,-170l-1,-143l-569,-565l-568,-565l-320,320c-255,255 -320,324 -315,340c3,11 10,64 16,117c22,182 -14,374 -101,553c-135,279 -378,475 -688,556c-100,26 -307,34 -414,15zM1192,4906c172,-33 312,-108 438,-235c117,-118 183,-236 226,-401c24,-91 24,-272 1,-373c-10,-43 -16,-90 -12,-105c4,-19 116,-138 355,-377l350,-350l-87,-87l-87,-88l-202,200c-198,197 -202,200 -243,200c-60,0 -101,-41 -101,-101c0,-41 3,-45 200,-243l200,-202l-88,-87l-87,-87l-349,349c-193,193 -360,352 -373,356c-13,3 -68,-4 -122,-15c-55,-11 -130,-20 -168,-20c-383,0 -715,260 -819,640c-31,115 -21,390 17,451c6,10 64,-41 226,-203c262,-261 281,-273 433,-273c82,0 103,4 152,27c79,37 142,98 181,177c29,60 32,74 32,161c0,152 -12,171 -273,433c-237,237 -231,228 -137,246c28,6 59,12 70,14c46,10 198,6 267,-7zM4804,4801l89,-89l-176,-339l-175,-338l-163,-3l-163,-3l-93,93l-93,93l2,163l3,163l335,174c184,96 337,174 340,175c3,0 45,-40 94,-89zM3265,3030l-835,-835l-117,118l-118,117l835,835l835,835l117,-117l118,-118zM3420,2196c214,-214 355,-347 371,-351c14,-4 53,1 85,9c87,24 239,31 331,16c179,-28 332,-108 463,-239c114,-115 183,-235 226,-391c31,-115 21,-390 -17,-451c-6,-10 -64,41 -226,203c-262,261 -281,273 -433,273c-87,0 -101,-3 -161,-32c-79,-39 -140,-102 -177,-181c-23,-49 -27,-70 -27,-152c0,-152 12,-171 273,-433c162,-162 213,-220 203,-226c-33,-21 -145,-36 -261,-35c-134,0 -220,18 -334,68c-338,150 -548,541 -480,896c10,52 18,114 18,138v42l-347,348c-191,191 -347,352 -347,357c0,6 37,47 83,93l82,82l185,-186c102,-102 197,-192 212,-200c71,-38 148,7 148,87c0,41 -3,45 -200,243l-200,202l83,82c45,45 86,82 92,82c5,0 165,-155 355,-344zM1874,2455c42,-20 572,-552 585,-588c16,-41 13,-103 -6,-140c-19,-38 -131,-157 -147,-157c-6,0 -175,164 -376,365l-365,365l65,66c36,36 79,75 95,85c36,23 105,25 149,4z"></path><path d="M1640,893c-42,-38 -48,-79 -18,-122c57,-85 178,-51 178,49c0,88 -95,131 -160,73z"></path></g></g></g></svg>