<svg version="1.1" xmlns="http://www.w3.org/2000/svg" xmlns:xlink="http://www.w3.org/1999/xlink" width="512.000000pt" height="512.000000pt" viewBox="0,0,256,256"><g fill="#00a0da" fill-rule="nonzero" stroke="none" stroke-width="1" stroke-linecap="butt" stroke-linejoin="miter" stroke-miterlimit="10" stroke-dasharray="" stroke-dashoffset="0" font-family="none" font-weight="none" font-size="none" text-anchor="none" style="mix-blend-mode: normal"><g transform="scale(0.5,0.5)"><g transform="translate(0,512) scale(0.1,-0.1)"><path d="M25,5095l-25,-24v-511v-511l25,-24l24,-25h251h251l24,25c18,17 25,35 25,62c1,101 102,203 200,203c98,0 199,-102 200,-203c0,-27 7,-45 25,-62c24,-25 26,-25 211,-25c154,0 185,-2 181,-14c-13,-33 -58,-251 -74,-361c-17,-112 -18,-233 -18,-1775c0,-1626 0,-1656 20,-1695c25,-50 80,-105 130,-130c36,-18 65,-20 264,-23c188,-3 232,-1 275,13c68,23 116,63 152,127l29,53l3,1585c2,1083 0,1626 -8,1715c-11,134 -39,314 -65,420c-8,33 -14,66 -15,73c0,9 43,12 180,12c179,0 181,0 205,25c23,22 25,32 25,120v95h133c143,0 212,-13 306,-55c116,-54 243,-156 363,-292l45,-53h132c127,0 133,1 156,25c16,15 25,36 25,55c0,50 -68,246 -131,379c-134,282 -292,458 -500,555c-116,55 -175,67 -361,73l-168,6v69c0,60 -3,72 -25,93l-24,25h-711h-711l-24,-25c-18,-17 -25,-35 -25,-62c-1,-101 -102,-203 -200,-203c-98,0 -199,102 -200,203c0,27 -7,45 -25,62l-24,25h-251h-251zM440,4560v-400h-140h-140v400v400h140h140zM2360,4560v-400h-600h-600v400v400h600h600zM2900,4741c169,-53 316,-184 440,-390c46,-78 131,-266 145,-323c6,-24 4,-28 -16,-28c-15,0 -57,34 -128,103c-118,114 -227,191 -339,238c-109,45 -189,59 -344,59h-138v186v187l158,-6c121,-4 172,-10 222,-26zM800,4675c71,0 94,5 143,27l57,27v-170c0,-94 -3,-169 -7,-167c-141,73 -245,73 -385,0c-5,-2 -8,73 -8,167v170l58,-27c48,-22 71,-27 142,-27zM1950,3959c22,-82 49,-217 67,-334c17,-112 18,-229 18,-1762v-1643l-28,-27l-27,-28h-220h-220l-27,28l-28,27v1648c0,1827 -6,1662 67,1990l31,142h178h178z"></path><path d="M4708,3224c-172,-114 -772,-508 -1333,-877c-561,-368 -1030,-681 -1042,-694c-28,-30 -29,-72 -3,-101c27,-28 62,-37 92,-21c20,11 2387,1567 2496,1641l42,29v-1521v-1520h-370h-370v84c0,74 -3,88 -22,110c-34,37 -85,39 -118,4c-17,-18 -20,-35 -20,-110v-88h-369h-369l-4,90c-2,73 -7,93 -23,109c-32,31 -85,31 -115,1c-17,-17 -20,-33 -20,-110v-90h-395h-396l-24,-25c-33,-32 -33,-78 0,-110l24,-25h1351h1351l24,25l25,24v1666v1666l-25,24c-13,14 -35,25 -49,25c-15,0 -145,-79 -338,-206z"></path><path d="M3360,1475c-536,-361 -981,-663 -987,-672c-21,-27 -15,-72 12,-98l24,-25h994h994l21,23l22,23v680v681l-23,21c-13,12 -36,22 -53,22c-22,0 -264,-158 -1004,-655zM4277,843c-2,-2 -356,-2 -786,-1l-782,3l783,526l783,525l3,-524c1,-289 1,-527 -1,-529z"></path><path d="M555,489c-292,-192 -536,-357 -543,-366c-20,-27 -14,-72 13,-98l24,-25h540c380,0 547,3 565,11c13,7 30,25 37,40c15,37 -2,82 -37,98c-17,7 -147,11 -415,11h-391l404,266c221,146 411,273 421,282c45,40 4,133 -59,131c-21,0 -174,-96 -559,-350z"></path></g></g></g></svg>