<svg version="1.1" xmlns="http://www.w3.org/2000/svg" xmlns:xlink="http://www.w3.org/1999/xlink" width="512.000000pt" height="512.000000pt" viewBox="0,0,256,256"><g fill="#00a0da" fill-rule="nonzero" stroke="none" stroke-width="1" stroke-linecap="butt" stroke-linejoin="miter" stroke-miterlimit="10" stroke-dasharray="" stroke-dashoffset="0" font-family="none" font-weight="none" font-size="none" text-anchor="none" style="mix-blend-mode: normal"><g transform="scale(0.5,0.5)"><g transform="translate(0,512) scale(0.1,-0.1)"><path d="M2268,5101c-86,-34 -164,-119 -188,-205c-12,-44 -12,-44 -100,-75c-281,-101 -526,-339 -640,-624c-34,-84 -70,-226 -70,-274c0,-35 -4,-40 -72,-84c-152,-98 -180,-308 -60,-450l25,-30l-20,-27c-108,-147 -106,-348 7,-490c68,-86 164,-136 291,-150l62,-7l23,-66c51,-153 155,-318 273,-434l61,-60v-132v-133h-187c-213,0 -311,-13 -455,-59c-313,-101 -595,-391 -701,-721c-49,-152 -52,-189 -52,-617v-403l28,-27l27,-28l2035,-3l2035,-2l32,29l33,29v404c0,429 -3,466 -52,618c-106,330 -388,620 -701,721c-144,46 -242,59 -454,59h-188v131v131l71,72c115,115 232,308 273,450l12,41l63,7c127,14 223,64 291,150c112,142 115,343 7,489l-19,27l36,48c39,51 66,126 66,184c0,96 -57,200 -138,250c-67,42 -72,47 -72,83c0,48 -36,190 -70,274c-114,285 -359,523 -640,624c-88,31 -88,31 -100,75c-25,88 -103,172 -190,205c-44,17 -78,19 -293,19c-211,-1 -248,-3 -289,-19zM2805,4898c53,-41 55,-59 55,-413v-325l28,-30c17,-19 40,-33 63,-36c31,-5 42,-1 70,24l34,30l3,246l3,245l66,-30c180,-81 348,-240 435,-414c31,-61 73,-193 83,-257l7,-48h-1092h-1092l7,48c10,64 52,196 83,257c87,174 255,333 435,414l67,30v-239v-240l28,-30c17,-19 40,-33 63,-36c31,-5 42,-1 70,24l34,30l5,344c5,364 6,367 56,407c25,20 39,21 244,21c208,0 219,-1 245,-22zM3825,3659c14,-14 28,-42 32,-62c5,-32 1,-41 -30,-72l-35,-35l-1236,2l-1236,3l-25,26c-14,14 -28,42 -32,62c-5,32 -1,41 30,72l35,35l1236,-2l1236,-3zM1460,3089v-201l-37,7c-112,20 -184,139 -154,252c19,70 102,138 174,142c16,1 17,-15 17,-200zM3460,3106c0,-118 -5,-214 -15,-269c-61,-353 -314,-641 -650,-743c-79,-24 -108,-27 -230,-28c-117,0 -153,3 -220,22c-324,92 -562,338 -656,677c-18,68 -22,113 -26,303l-5,222h901h901zM3768,3257c18,-12 45,-40 60,-61c23,-33 27,-50 27,-106c0,-56 -4,-73 -27,-106c-34,-48 -81,-80 -130,-89l-38,-7v202v202l38,-7c20,-3 52,-16 70,-28zM2140,1950c112,-56 254,-84 420,-84c166,0 308,28 420,84c82,41 80,43 80,-60v-91l-247,-259c-137,-143 -250,-260 -253,-260c-3,0 -116,117 -252,260l-248,259v91c0,103 -2,101 80,60zM2188,1376l272,-285v-445v-446h-399h-399l-4,136l-3,136l-34,30c-28,25 -39,29 -70,24c-23,-3 -46,-17 -63,-36c-28,-30 -28,-33 -28,-160v-130h-100h-100v704v703l58,16c31,9 76,19 100,23l42,7v-327v-326l28,-30c17,-19 40,-33 63,-36c31,-5 42,-1 70,24l34,30l3,336l3,336h128h128zM3460,1330v-330l28,-30c17,-19 40,-33 63,-36c31,-5 42,-1 70,24l34,30l3,332l3,332l42,-6c23,-4 68,-14 100,-23l57,-16v-703v-704h-99h-99l-4,136l-3,136l-34,30c-28,25 -39,29 -70,24c-23,-3 -46,-17 -63,-36c-28,-30 -28,-33 -28,-160v-130h-400h-400v446v445l272,285l271,284h129h128zM1060,845v-645h-200h-200v293c0,379 15,477 98,645c53,106 102,174 194,265c49,48 93,87 98,87c6,0 10,-231 10,-645zM4168,1403c92,-91 141,-159 194,-265c83,-168 98,-266 98,-645v-293h-200h-200v645c0,414 4,645 10,645c5,0 49,-39 98,-87z"></path><path d="M1524,820c-32,-13 -64,-59 -64,-91c0,-40 46,-88 91,-95c31,-5 42,-1 70,24c28,25 34,37 34,72c0,35 -6,47 -33,71c-33,29 -60,35 -98,19z"></path><path d="M3524,820c-32,-13 -64,-59 -64,-91c0,-40 46,-88 91,-95c31,-5 42,-1 70,24c28,25 34,37 34,72c0,35 -6,47 -33,71c-33,29 -60,35 -98,19z"></path></g></g></g></svg>