<svg version="1.1" xmlns="http://www.w3.org/2000/svg" xmlns:xlink="http://www.w3.org/1999/xlink" width="512.000000pt" height="512.000000pt" viewBox="0,0,256,256"><g fill="#00a0da" fill-rule="nonzero" stroke="none" stroke-width="1" stroke-linecap="butt" stroke-linejoin="miter" stroke-miterlimit="10" stroke-dasharray="" stroke-dashoffset="0" font-family="none" font-weight="none" font-size="none" text-anchor="none" style="mix-blend-mode: normal"><g transform="translate(-0.08555,0.0295) scale(0.5,0.5)"><g transform="translate(0,512) scale(0.1,-0.1)"><path d="M123,5096l-28,-24v-409v-408l93,-157l92,-156v-636v-636h-36c-137,0 -236,-107 -237,-255c-1,-115 49,-193 148,-231l45,-17l2,-796l3,-796l23,-50c67,-145 239,-223 402,-181c116,30 190,93 234,200c21,50 21,64 24,838l3,788l50,21c94,41 159,155 145,256c-16,122 -129,223 -250,223h-36v200c0,200 0,201 -25,225c-30,30 -64,32 -99,4l-26,-20v-205v-204h-110h-110v656v656l-95,162l-95,163v196v197h300h300v-198v-197l-76,-130c-126,-216 -114,-165 -114,-483c0,-268 1,-280 20,-297c30,-27 88,-25 111,4c17,21 19,44 19,281v258l95,164l95,163v393c0,413 -3,439 -45,456c-9,3 -192,6 -405,6h-389zM840,4910v-60l-297,2l-298,3l-3,44c-6,76 -26,71 303,71h295zM901,2491c21,-22 29,-39 29,-66c0,-42 -22,-90 -45,-99c-9,-3 -166,-6 -349,-6c-332,0 -333,0 -354,23c-28,30 -36,69 -22,111c22,67 18,66 383,66h329zM740,1425c0,-515 -3,-760 -11,-797c-9,-40 -21,-63 -53,-94c-93,-93 -216,-80 -296,33l-25,36l-3,783l-2,784h195h195z"></path><path d="M1674,5094c-62,-41 -180,-163 -233,-239c-136,-197 -211,-423 -211,-635c0,-124 13,-185 57,-279c61,-128 173,-221 332,-277l66,-23l3,-123c2,-68 0,-349 -3,-624l-7,-502l-61,-73c-126,-155 -245,-370 -307,-557c-66,-204 -81,-309 -87,-615l-5,-278l-32,-13c-96,-40 -156,-138 -155,-251c1,-81 12,-116 55,-178c46,-65 113,-94 234,-102c217,-14 379,-59 583,-161c115,-58 261,-111 387,-140c65,-15 150,-18 662,-21c501,-4 604,-2 705,12c143,19 309,73 454,146c209,105 368,151 564,164c55,3 116,11 135,15c103,27 183,144 183,268c0,111 -61,207 -155,247l-38,15v216c0,254 -11,366 -50,531c-52,217 -149,430 -278,613c-71,100 -293,333 -352,369c-36,22 -113,28 -139,12c-9,-6 -35,5 -80,32c-105,64 -257,134 -368,169l-103,33v35c0,20 -7,45 -15,57c-19,27 -155,80 -253,99c-150,29 -308,13 -460,-46c-90,-34 -112,-56 -112,-110v-35l-112,-38c-62,-21 -122,-41 -132,-44c-19,-6 -19,0 -13,213c4,120 7,318 7,439v220l79,28c216,76 342,222 378,438c30,175 -10,388 -112,594c-100,203 -292,415 -375,415c-79,0 -80,-6 -80,-382c0,-265 -3,-328 -14,-344c-13,-18 -28,-19 -194,-19c-137,0 -183,3 -195,14c-15,12 -17,48 -17,336c0,209 -4,333 -11,354c-20,57 -64,66 -125,25zM1696,4304c16,-21 42,-46 56,-57c35,-26 160,-40 333,-35c138,3 143,4 191,33c31,20 58,47 74,75c24,44 25,51 30,301l5,257l53,-67c29,-36 74,-109 101,-161c157,-305 156,-599 -1,-746c-55,-51 -164,-105 -251,-125c-98,-21 -97,-19 -97,-303c0,-132 -3,-366 -7,-519l-6,-279l-60,-38c-53,-33 -64,-37 -89,-28c-46,16 -106,3 -148,-31c-22,-17 -41,-31 -44,-31c-3,0 -2,258 1,573c3,315 3,585 -1,600c-7,31 -27,43 -104,63c-151,39 -268,126 -318,237c-24,53 -28,78 -32,172c-4,126 9,202 58,338c35,95 112,229 175,304l40,48l5,-272l5,-271zM3213,2871l67,-22v-984v-985h-270h-270v984v984l48,16c86,29 135,35 247,32c76,-3 131,-11 178,-25zM2590,1780v-900h-235h-235v793v792l58,37c110,71 344,176 395,178c16,0 17,-49 17,-900zM3526,2656c100,-34 196,-80 290,-137l83,-50l3,-460l3,-461l24,-19c32,-26 73,-24 99,4c22,23 22,27 24,476l3,453l82,-77c245,-227 412,-529 485,-875c16,-76 21,-148 25,-362l5,-268h-301h-301v169v170l-26,20c-43,34 -86,26 -109,-20c-11,-21 -15,-67 -15,-184v-155h-235h-235v900c0,740 2,900 13,900c8,0 45,-11 83,-24zM1970,1670v-790h-300h-300v209c0,234 16,383 55,531c77,284 221,530 432,738c57,56 106,102 109,102c2,0 4,-355 4,-790zM4776,714c65,-31 93,-114 58,-174c-27,-44 -61,-57 -169,-65c-213,-14 -368,-59 -625,-180c-143,-68 -213,-93 -345,-126c-36,-9 -216,-13 -630,-16c-755,-5 -779,-2 -1095,147c-262,123 -402,164 -602,176c-116,6 -151,16 -172,49c-41,62 -24,148 36,185c33,20 45,20 1771,20c1576,0 1742,-2 1773,-16z"></path><path d="M3884,5101c-55,-25 -79,-68 -99,-176c-21,-120 -22,-122 -48,-129c-12,-3 -59,-30 -105,-60l-83,-54l-104,36c-96,33 -107,34 -145,23c-60,-18 -91,-53 -169,-190c-61,-107 -71,-131 -71,-173c0,-68 17,-95 106,-170l77,-66l2,-130l2,-131l-69,-57c-85,-71 -108,-107 -108,-170c0,-41 10,-66 75,-181c115,-201 139,-213 316,-157l117,37l33,-26c19,-13 66,-41 106,-61l71,-35l17,-96c19,-106 41,-148 95,-179c29,-18 56,-22 165,-25c168,-4 222,8 268,58c29,32 36,51 51,132c24,129 23,125 58,140c17,7 65,35 106,61l74,49l95,-32c108,-36 161,-36 211,0c17,12 60,72 98,138c123,211 122,237 -12,361l-86,79l-2,127l-2,127l66,55c92,78 110,106 110,173c0,49 -7,66 -77,188c-112,194 -145,209 -322,149l-103,-35l-44,30c-25,17 -73,44 -108,60l-63,29l-17,98c-32,180 -63,202 -291,202c-125,0 -157,-4 -191,-19zM4227,4846c12,-65 27,-124 33,-131c6,-8 42,-26 79,-40c38,-14 104,-50 147,-80c44,-30 87,-55 96,-55c9,0 67,18 128,40c62,22 115,38 120,35c11,-7 120,-201 120,-213c0,-6 -40,-45 -90,-88c-49,-43 -92,-86 -95,-95c-4,-10 -1,-46 5,-81c8,-40 10,-102 5,-172l-7,-108l63,-57c34,-31 80,-72 100,-91l38,-35l-59,-100c-33,-55 -61,-104 -63,-110c-2,-6 -51,6 -113,28c-60,20 -121,37 -135,37c-16,0 -46,-16 -75,-40c-27,-23 -89,-61 -139,-86c-49,-25 -94,-49 -99,-55c-6,-5 -22,-66 -36,-136l-26,-128l-126,-3c-114,-2 -127,-1 -132,15c-3,10 -12,61 -22,113c-19,111 -32,136 -82,156c-79,32 -139,65 -191,104c-33,24 -66,40 -82,40c-15,0 -77,-18 -138,-39l-110,-40l-60,108c-34,59 -61,112 -60,117c0,5 38,41 84,79c46,39 89,79 95,91c9,16 9,40 0,98c-7,48 -9,114 -5,176l7,99l-33,31c-19,17 -62,54 -96,83c-34,29 -62,57 -62,64c-1,6 26,59 60,117l60,105l111,-39c61,-22 119,-40 128,-40c10,0 48,23 86,51c38,29 106,69 151,90c92,43 91,40 118,194c9,50 18,96 20,103c4,10 35,12 132,10l128,-3z"></path><path d="M3950,4437c-199,-68 -325,-273 -292,-475c39,-236 263,-401 490,-364c238,40 403,265 364,498c-44,264 -312,427 -562,341zM4214,4279c164,-82 205,-299 81,-437c-62,-69 -121,-96 -210,-95c-83,0 -129,18 -190,74c-158,146 -104,398 102,475c55,21 159,13 217,-17z"></path></g></g></g></svg>