<svg version="1.1" xmlns="http://www.w3.org/2000/svg" xmlns:xlink="http://www.w3.org/1999/xlink" width="512.000000pt" height="512.000000pt" viewBox="0,0,256,256"><g fill="#00a0da" fill-rule="nonzero" stroke="none" stroke-width="1" stroke-linecap="butt" stroke-linejoin="miter" stroke-miterlimit="10" stroke-dasharray="" stroke-dashoffset="0" font-family="none" font-weight="none" font-size="none" text-anchor="none" style="mix-blend-mode: normal"><g transform="translate(0,-0.02511) scale(0.5,0.5)"><g transform="translate(0,512) scale(0.1,-0.1)"><path d="M2459,5105c-73,-23 -140,-75 -184,-142c-38,-56 -44,-61 -108,-82c-168,-55 -356,-178 -482,-313c-200,-216 -302,-462 -327,-793c-11,-150 -11,-150 -44,-184c-100,-102 -75,-278 50,-356c46,-28 58,-30 157,-33l108,-4l-30,-47c-131,-214 -80,-561 98,-666c46,-27 54,-37 78,-100c40,-104 110,-210 197,-301l78,-81v-92v-91h-269c-253,0 -274,-1 -367,-25c-304,-76 -534,-296 -626,-597c-22,-71 -22,-88 -26,-614l-3,-542l27,-21l27,-21h1749h1749l25,25l25,25l-3,538c-4,522 -4,539 -26,610c-92,302 -320,520 -626,597c-93,24 -114,25 -367,25h-269v93v93l51,49c102,99 200,250 230,354c7,23 20,46 28,49c43,15 106,69 136,116c106,167 106,428 0,584l-25,37l108,5c99,5 113,8 158,35c30,19 60,49 79,79c26,43 30,59 30,120c-1,78 -15,114 -63,163c-28,27 -29,34 -40,175c-28,346 -140,606 -357,824c-132,133 -296,235 -466,291c-49,16 -60,24 -85,67c-77,129 -254,196 -395,151zM2648,4943c42,-20 79,-64 92,-111c6,-23 10,-243 10,-599v-563h-190h-190v563c0,379 4,575 11,602c30,106 157,158 267,108zM2210,4200v-530h-350h-350v58c0,85 25,236 56,332c71,226 215,422 405,551c56,37 214,119 231,119c4,0 8,-238 8,-530zM3025,4682c348,-174 555,-498 581,-909l7,-103h-351h-352v531v530l23,-7c12,-3 54,-22 92,-42zM3690,3490c26,-26 26,-80 1,-111l-19,-24l-1089,-3c-598,-1 -1098,0 -1111,3c-60,15 -84,94 -40,135c22,20 29,20 1130,20c1095,0 1108,0 1128,-20zM3268,3171c11,-16 38,-37 59,-47c68,-34 101,-105 110,-236c4,-60 1,-91 -16,-147c-24,-80 -73,-141 -112,-141c-42,0 -66,-27 -89,-97c-43,-131 -98,-221 -190,-313c-140,-141 -279,-200 -470,-200c-189,0 -332,62 -475,205c-100,99 -141,167 -184,299c-27,84 -35,92 -106,113c-70,20 -123,159 -112,297c9,120 50,195 128,234c19,9 38,27 44,40l10,22h690h691zM2265,1889c62,-28 215,-59 288,-59c106,0 231,27 350,75c15,6 17,0 17,-69v-76l-67,-69c-117,-118 -261,-165 -403,-131c-72,17 -162,81 -210,148c-38,52 -40,59 -40,129c0,40 4,73 9,73c5,0 30,-9 56,-21zM2120,1609c99,-143 289,-230 466,-214c146,13 295,91 397,207l51,58h236h236l-17,-83c-52,-260 -73,-515 -66,-807c6,-226 21,-361 58,-518c10,-46 19,-85 19,-88c0,-2 -423,-4 -941,-4h-941l5,23c95,385 98,877 8,1377l-17,100h235l236,-1zM1499,1400c63,-448 55,-833 -26,-1172l-16,-68h-274h-273v409c0,237 5,442 11,487c37,268 227,496 479,575l55,17l12,-52c7,-28 21,-116 32,-196zM3825,1588c203,-102 341,-299 375,-533c5,-38 10,-256 10,-482v-413h-274h-274l-21,88c-88,378 -88,858 0,1294c10,53 19,99 19,102c0,9 104,-26 165,-56z"></path></g></g></g></svg>