<?xml version="1.0" standalone="no"?>
<!DOCTYPE svg PUBLIC "-//W3C//DTD SVG 20010904//EN" "http://www.w3.org/TR/2001/REC-SVG-20010904/DTD/svg10.dtd">
<!-- Created using Krita: https://krita.org -->
<svg xmlns="http://www.w3.org/2000/svg" 
    xmlns:xlink="http://www.w3.org/1999/xlink"
    xmlns:krita="http://krita.org/namespaces/svg/krita"
    xmlns:sodipodi="http://sodipodi.sourceforge.net/DTD/sodipodi-0.dtd"
    width="1200pt"
    height="840pt"
    viewBox="0 0 1200 840">
<defs/>
<path id="shape0" transform="translate(521.7265, 170.88)" fill="#ffffff" fill-rule="evenodd" stroke="#ffffff" stroke-width="0.9864" stroke-linecap="square" stroke-linejoin="miter" stroke-miterlimit="2" d="M14.9486 0L0 14.9027L78.4048 201.741L156.547 14.9347L142.249 0.664465L104.814 89.513L67.0378 0.085Z" sodipodi:nodetypes="cccccccc"/><path id="shape01" transform="translate(430.9885, 185.925000599788)" fill="#00a0da" stroke="#00a0da" stroke-width="0.96" stroke-linecap="square" stroke-linejoin="miter" stroke-miterlimit="2" d="M90.4107 0.118694L0 90.555L169.01 259.546C243.983 184.575 300.536 128.04 338.023 90.555L247.49 0L169.151 186.696C142.974 124.48 116.588 62.8789 90.4107 0.118694Z" sodipodi:nodetypes="ccccccc"/><path id="shape02" transform="translate(536.25, 107.480590369558)" fill="#66bfeb" stroke="#66bfeb" stroke-width="0.96" stroke-linecap="square" stroke-linejoin="miter" stroke-miterlimit="2" d="M63.4796 0L0 63.4699L52.2537 63.4844L90.0297 152.912L127.5 64.0594Z" sodipodi:nodetypes="cccccc"/><text id="shape03" krita:useRichText="true" krita:textVersion="2" transform="translate(203.5, 614.919999954988)" fill="#ffffff" stroke-opacity="0" stroke="#000000" stroke-width="0" stroke-linecap="square" stroke-linejoin="bevel" font-family="Inter" font-size="152" font-size-adjust="0.210526" font-stretch="normal" font-weight="600" letter-spacing="3.5" word-spacing="0"><tspan x="0">VERBEEKE</tspan></text><text id="shape1" krita:useRichText="true" krita:textVersion="2" transform="translate(271.75, 688.759999727374)" fill="#ffffff" stroke-opacity="0" stroke="#000000" stroke-width="0" stroke-linecap="square" stroke-linejoin="bevel" font-family="Inter" font-size="48" font-size-adjust="0.210526" font-stretch="normal" font-weight="500" letter-spacing="0" word-spacing="0"><tspan x="0">BOUW- EN TIMMERWERKEN</tspan></text><path id="shape2" transform="translate(209.175, 672.239999765014)" fill="#ffd100" stroke="#ffffff" stroke-width="4.8" stroke-linecap="square" stroke-linejoin="miter" stroke-miterlimit="2" d="M0 0C13.0367 0 32.5917 0 58.665 0M58.665 0M721.065 0L781.65 0" sodipodi:nodetypes="ccccc"/>
</svg>
